<?xml version="1.0" standalone="no"?>
<!DOCTYPE svg PUBLIC "-//W3C//DTD SVG 20010904//EN"
 "http://www.w3.org/TR/2001/REC-SVG-20010904/DTD/svg10.dtd">
<svg version="1.0" xmlns="http://www.w3.org/2000/svg"
 width="700.000000pt" height="700.000000pt" viewBox="0 0 700.000000 700.000000"
 preserveAspectRatio="xMidYMid meet">
<metadata>
Created by potrace 1.11, written by Peter Selinger 2001-2013
</metadata>
<g transform="translate(0.000000,700.000000) scale(0.100000,-0.100000)"
fill="#000000" stroke="none">
<path d="M3652 6984 c-143 -30 -271 -97 -377 -195 l-64 -61 -43 29 c-96 65
-221 101 -348 101 -104 0 -185 -19 -287 -68 -96 -47 -199 -141 -257 -236 l-37
-62 -47 23 c-83 40 -154 57 -257 60 -263 9 -495 -136 -605 -378 -33 -74 -58
-187 -55 -256 1 -45 -1 -51 -19 -52 -77 -2 -145 -12 -196 -28 -241 -75 -407
-293 -415 -546 -8 -241 121 -452 340 -556 l60 -29 6 -52 c16 -125 56 -224 129
-315 47 -59 145 -137 208 -165 l42 -19 0 -1774 0 -1775 -47 0 c-88 -1 -170
-58 -191 -133 -5 -18 -9 -107 -8 -199 l1 -166 30 -44 c18 -25 49 -52 75 -65
l44 -23 2051 0 2051 0 44 22 c26 14 57 41 75 66 l30 44 0 183 0 183 -30 44
c-38 54 -102 88 -167 88 l-48 0 2 172 3 172 325 2 c179 0 341 4 360 8 62 12
159 66 209 117 57 58 97 134 111 211 7 34 9 476 8 1233 l-3 1180 -36 75 c-60
125 -180 218 -304 236 -27 4 -189 8 -360 8 l-310 1 -3 46 -3 46 57 2 c83 2
138 18 234 64 109 53 219 159 267 259 116 236 80 496 -93 688 -36 40 -37 42
-22 68 27 46 49 138 49 204 0 137 -43 241 -139 337 -37 36 -78 71 -92 77 -94
44 -121 53 -172 56 -36 2 -38 4 -38 38 0 19 -5 64 -11 99 -35 219 -164 392
-360 486 -41 19 -86 38 -100 41 -91 19 -123 22 -203 19 -50 -2 -115 -11 -144
-20 -30 -9 -55 -15 -56 -13 -2 2 -20 35 -41 73 -34 62 -186 235 -207 235 -3 0
-33 17 -65 38 -51 34 -156 75 -248 97 -56 14 -239 13 -303 -1z m2216 -4475 l2
-1045 -262 1 -263 0 -3 1035 c-1 569 0 1040 2 1045 2 6 99 10 262 10 l259 0 3
-1046z"/>
</g>
</svg>
